<svg id="visual" viewBox="0 0 900 600" width="900" height="600" xmlns="http://www.w3.org/2000/svg" xmlns:xlink="http://www.w3.org/1999/xlink" version="1.1"><rect width="900" height="600" fill="#00000000"></rect><g><g transform="translate(62 462)"><path d="M109.6 -39.5C122.2 3.1 98.8 53.5 59.5 82.1C20.2 110.6 -35 117.4 -66.2 94C-97.5 70.7 -104.7 17.1 -89.7 -28.9C-74.7 -74.9 -37.3 -113.4 5.6 -115.2C48.5 -117 97 -82.2 109.6 -39.5Z" stroke="#ecc9a4" fill="none" stroke-width="20"></path></g><g transform="translate(230 74)"><path d="M72.1 -19.3C83.6 12 76.4 53.6 51.6 71.7C26.9 89.8 -15.3 84.4 -44.4 62.8C-73.6 41.2 -89.8 3.4 -80.2 -25.2C-70.6 -53.8 -35.3 -73.3 -2.5 -72.4C30.3 -71.6 60.6 -50.6 72.1 -19.3Z" stroke="#ecc9a4" fill="none" stroke-width="20"></path></g><g transform="translate(600 441)"><path d="M84.8 -27C95.8 6.1 80.7 48.2 51.6 68.8C22.6 89.4 -20.5 88.4 -49.6 67.4C-78.8 46.5 -94 5.5 -83.4 -27.1C-72.8 -59.6 -36.4 -83.8 0.3 -83.9C37 -84 73.9 -60 84.8 -27Z" stroke="#ecc9a4" fill="none" stroke-width="20"></path></g></g></svg>