<svg id="visual" viewBox="0 0 900 600" width="900" height="600" xmlns="http://www.w3.org/2000/svg" xmlns:xlink="http://www.w3.org/1999/xlink" version="1.1"><rect x="0" y="0" width="900" height="600" fill="#ecdaa9"></rect><path d="M157 0L153.2 14.3C149.3 28.7 141.7 57.3 144.2 85.8C146.7 114.3 159.3 142.7 168.5 171.2C177.7 199.7 183.3 228.3 188.8 257C194.3 285.7 199.7 314.3 191.5 343C183.3 371.7 161.7 400.3 158 428.8C154.3 457.3 168.7 485.7 172 514.2C175.3 542.7 167.7 571.3 163.8 585.7L160 600L0 600L0 585.7C0 571.3 0 542.7 0 514.2C0 485.7 0 457.3 0 428.8C0 400.3 0 371.7 0 343C0 314.3 0 285.7 0 257C0 228.3 0 199.7 0 171.2C0 142.7 0 114.3 0 85.8C0 57.3 0 28.7 0 14.3L0 0Z" fill="#ed7a00"></path><path d="M135 0L133.5 14.3C132 28.7 129 57.3 132.2 85.8C135.3 114.3 144.7 142.7 149.3 171.2C154 199.7 154 228.3 154.8 257C155.7 285.7 157.3 314.3 151.7 343C146 371.7 133 400.3 133.7 428.8C134.3 457.3 148.7 485.7 155.3 514.2C162 542.7 161 571.3 160.5 585.7L160 600L0 600L0 585.7C0 571.3 0 542.7 0 514.2C0 485.7 0 457.3 0 428.8C0 400.3 0 371.7 0 343C0 314.3 0 285.7 0 257C0 228.3 0 199.7 0 171.2C0 142.7 0 114.3 0 85.8C0 57.3 0 28.7 0 14.3L0 0Z" fill="#e96000"></path><path d="M114 0L109.7 14.3C105.3 28.7 96.7 57.3 98.8 85.8C101 114.3 114 142.7 111.3 171.2C108.7 199.7 90.3 228.3 83.8 257C77.3 285.7 82.7 314.3 90.2 343C97.7 371.7 107.3 400.3 110.2 428.8C113 457.3 109 485.7 103.8 514.2C98.7 542.7 92.3 571.3 89.2 585.7L86 600L0 600L0 585.7C0 571.3 0 542.7 0 514.2C0 485.7 0 457.3 0 428.8C0 400.3 0 371.7 0 343C0 314.3 0 285.7 0 257C0 228.3 0 199.7 0 171.2C0 142.7 0 114.3 0 85.8C0 57.3 0 28.7 0 14.3L0 0Z" fill="#e34208"></path><path d="M32 0L38 14.3C44 28.7 56 57.3 62.3 85.8C68.7 114.3 69.3 142.7 63 171.2C56.7 199.7 43.3 228.3 36.8 257C30.3 285.7 30.7 314.3 39 343C47.3 371.7 63.7 400.3 71.3 428.8C79 457.3 78 485.7 71.2 514.2C64.3 542.7 51.7 571.3 45.3 585.7L39 600L0 600L0 585.7C0 571.3 0 542.7 0 514.2C0 485.7 0 457.3 0 428.8C0 400.3 0 371.7 0 343C0 314.3 0 285.7 0 257C0 228.3 0 199.7 0 171.2C0 142.7 0 114.3 0 85.8C0 57.3 0 28.7 0 14.3L0 0Z" fill="#dd1212"></path></svg>